<?xml version="1.0" standalone="no"?>
<!DOCTYPE svg PUBLIC "-//W3C//DTD SVG 20010904//EN"
 "http://www.w3.org/TR/2001/REC-SVG-20010904/DTD/svg10.dtd">
<svg version="1.0" xmlns="http://www.w3.org/2000/svg"
 width="500.000000pt" height="500.000000pt" viewBox="0 0 500.000000 500.000000"
 preserveAspectRatio="xMidYMid meet">
<metadata>
Created by potrace 1.14, written by Peter Selinger 2001-2017
</metadata>
<g transform="translate(0.000000,500.000000) scale(0.100000,-0.100000)"
fill="#000000" stroke="none">
<path d="M2215 4984 c-502 -64 -944 -254 -1320 -567 -94 -78 -283 -274 -356
-367 -177 -228 -324 -499 -408 -755 -95 -291 -126 -482 -126 -790 0 -165 9
-324 19 -357 3 -7 7 -31 10 -54 8 -63 54 -262 77 -334 98 -300 238 -566 428
-810 91 -118 316 -340 438 -433 322 -245 723 -421 1098 -481 17 -2 66 -10 110
-17 103 -17 524 -17 625 -1 41 7 89 14 105 16 17 3 50 9 75 15 25 5 56 12 70
14 14 3 45 10 70 17 25 7 50 13 55 14 71 14 317 113 450 181 249 127 450 274
640 468 61 62 121 126 135 143 50 60 118 151 163 219 26 39 50 75 54 81 5 5
13 19 19 30 6 10 23 42 39 69 159 282 273 644 302 960 10 103 10 408 1 505
-49 497 -251 971 -587 1375 -30 36 -244 250 -286 285 -280 237 -646 425 -1004
515 -100 25 -124 29 -231 45 -36 6 -78 13 -95 16 -65 12 -472 11 -570 -2z"/>
</g>
</svg>
