<svg width="32" height="32" viewBox="0 0 32 32" fill="none" xmlns="http://www.w3.org/2000/svg">
<path fill-rule="evenodd" clip-rule="evenodd" d="M0.932945 28.3386H24.2006V11.2657H0.932945V28.3386ZM24.6671 29.2715H0.466472C0.205248 29.2715 0 29.0663 0 28.8051V10.7992C0 10.538 0.205248 10.3328 0.466472 10.3328H24.6671C24.9283 10.3328 25.1335 10.538 25.1335 10.7992V28.8051C25.1335 29.0663 24.9283 29.2715 24.6671 29.2715Z" fill="#7A76FF"/>
<path fill-rule="evenodd" clip-rule="evenodd" d="M2.64925 26.6224H22.4837V12.9827H2.64925V26.6224ZM22.9501 27.5553H2.18278C1.92156 27.5553 1.71631 27.3501 1.71631 27.0889V12.5163C1.71631 12.2551 1.92156 12.0498 2.18278 12.0498H22.9501C23.2114 12.0498 23.4166 12.2551 23.4166 12.5163V27.0889C23.4166 27.3501 23.2114 27.5553 22.9501 27.5553Z" fill="#7A76FF"/>
<path fill-rule="evenodd" clip-rule="evenodd" d="M22.9502 27.5549C22.8196 27.5549 22.689 27.499 22.5957 27.387L16.6995 20.6698L10.9339 27.2564C10.766 27.443 10.4674 27.4617 10.2808 27.2937C10.0943 27.1258 10.0756 26.8273 10.2435 26.6407L16.3636 19.6622C16.5316 19.457 16.8861 19.457 17.054 19.6622L23.3048 26.7713C23.4727 26.9765 23.454 27.2751 23.2488 27.443C23.1741 27.5176 23.0622 27.5549 22.9502 27.5549Z" fill="#7A76FF"/>
<path fill-rule="evenodd" clip-rule="evenodd" d="M13.5835 23.9912C13.4529 23.9912 13.3223 23.9353 13.229 23.842L7.68728 17.4979L2.55608 23.3755C2.38815 23.5621 2.08961 23.5807 1.88436 23.4128C1.69778 23.2449 1.67912 22.9463 1.84705 22.7597L7.33276 16.4904C7.51935 16.2851 7.87387 16.2851 8.0418 16.4904L13.938 23.2262C14.1059 23.4128 14.0873 23.7114 13.9007 23.8793C13.8074 23.9539 13.6954 23.9912 13.5835 23.9912Z" fill="#7A76FF"/>
<path fill-rule="evenodd" clip-rule="evenodd" d="M19.0879 16.0051C18.696 16.0051 18.3602 16.341 18.3602 16.7515C18.3602 17.1433 18.696 17.4792 19.0879 17.4792C19.4984 17.4792 19.8342 17.1433 19.8342 16.7515C19.8342 16.341 19.4984 16.0051 19.0879 16.0051ZM19.0879 18.4121C18.1736 18.4121 17.4272 17.6657 17.4272 16.7515C17.4272 15.8185 18.1736 15.0908 19.0879 15.0908C20.0022 15.0908 20.7485 15.8185 20.7485 16.7515C20.7485 17.6657 20.0022 18.4121 19.0879 18.4121Z" fill="#7A76FF"/>
<path fill-rule="evenodd" clip-rule="evenodd" d="M28.0255 25.4465H24.6669C24.4056 25.4465 24.2004 25.2412 24.2004 24.98C24.2004 24.7188 24.4056 24.5135 24.6669 24.5135H27.559V7.45931H4.29134V10.7993C4.29134 11.0605 4.0861 11.2657 3.82487 11.2657C3.56365 11.2657 3.3584 11.0605 3.3584 10.7993V6.99284C3.3584 6.73162 3.56365 6.52637 3.82487 6.52637H28.0255C28.2867 6.52637 28.4919 6.73162 28.4919 6.99284V24.98C28.4919 25.2412 28.2867 25.4465 28.0255 25.4465Z" fill="#7A76FF"/>
<path fill-rule="evenodd" clip-rule="evenodd" d="M26.3095 23.73H24.6675C24.4063 23.73 24.201 23.5248 24.201 23.2636C24.201 23.0023 24.4063 22.7971 24.6675 22.7971H25.843V9.15745H6.00863V10.7994C6.00863 11.0607 5.80338 11.2659 5.54216 11.2659C5.28093 11.2659 5.07568 11.0607 5.07568 10.7994V8.69098C5.07568 8.44841 5.28093 8.24316 5.54216 8.24316H26.3095C26.5707 8.24316 26.776 8.44841 26.776 8.69098V23.2636C26.776 23.5248 26.5707 23.73 26.3095 23.73Z" fill="#7A76FF"/>
<path fill-rule="evenodd" clip-rule="evenodd" d="M26.3089 23.7303C26.1783 23.7303 26.0477 23.6743 25.973 23.581L24.3124 21.6965C24.1444 21.4912 24.1631 21.2113 24.3497 21.0247C24.5549 20.8568 24.8348 20.8755 25.0214 21.0807L26.6634 22.9653C26.8313 23.1518 26.8127 23.4504 26.6261 23.6183C26.5328 23.693 26.4208 23.7303 26.3089 23.7303Z" fill="#7A76FF"/>
<path fill-rule="evenodd" clip-rule="evenodd" d="M31.5338 21.9388H28.1752C27.9139 21.9388 27.7087 21.7335 27.7087 21.4723C27.7087 21.2111 27.9139 21.0058 28.1752 21.0058H31.0859V3.93294H7.79964V6.993C7.79964 7.23557 7.5944 7.45948 7.33317 7.45948C7.09061 7.45948 6.8667 7.23557 6.8667 6.993V3.46647C6.8667 3.20525 7.09061 3 7.33317 3H31.5338C31.795 3 32.0002 3.20525 32.0002 3.46647V21.4723C32.0002 21.7335 31.795 21.9388 31.5338 21.9388Z" fill="#7A76FF"/>
<path fill-rule="evenodd" clip-rule="evenodd" d="M29.836 20.2221H28.1753C27.9141 20.2221 27.7089 20.0168 27.7089 19.7556C27.7089 19.4944 27.9141 19.2891 28.1753 19.2891H29.3695V5.6495H9.51644V6.99294C9.51644 7.2355 9.31119 7.45941 9.04997 7.45941C8.78874 7.45941 8.5835 7.2355 8.5835 6.99294V5.18302C8.5835 4.9218 8.78874 4.71655 9.04997 4.71655H29.836C30.0785 4.71655 30.3024 4.9218 30.3024 5.18302V19.7556C30.3024 20.0168 30.0785 20.2221 29.836 20.2221Z" fill="#7A76FF"/>
<path fill-rule="evenodd" clip-rule="evenodd" d="M29.8355 20.222C29.7049 20.222 29.5743 20.166 29.481 20.0541L27.8204 18.1695C27.6525 17.983 27.6711 17.6844 27.8764 17.5165C28.0629 17.3486 28.3615 17.3672 28.5294 17.5538L30.1714 19.4383C30.3393 19.6436 30.3207 19.9421 30.1341 20.1101C30.0408 20.1847 29.9288 20.222 29.8355 20.222Z" fill="#7A76FF"/>
</svg>
