<svg width="32" height="32" viewBox="0 0 32 32" fill="none" xmlns="http://www.w3.org/2000/svg">
<path fill-rule="evenodd" clip-rule="evenodd" d="M8.9272 25.3817C8.81335 25.3817 8.71848 25.3476 8.64259 25.285L2.98834 20.9172C2.8745 20.8375 2.81757 20.7179 2.7986 20.587C2.77963 20.4561 2.83655 20.3271 2.91244 20.2284C2.98834 20.1601 4.44934 18.5321 5.72059 17.6764C6.65032 17.0408 7.67491 13.6672 8.35798 11.4359C8.45285 11.0905 8.54772 10.7604 8.64259 10.4568C9.49642 7.71316 15.8717 7.88962 16.5927 7.91998C16.8583 7.93136 17.0481 8.14956 17.0481 8.4114C17.0291 8.67135 16.8204 8.88765 16.5547 8.86298C14.1071 8.76432 10.0277 9.18744 9.55334 10.7357C9.45847 11.0374 9.3636 11.3657 9.24975 11.7091C8.28208 14.9517 7.37133 17.6973 6.25186 18.46C5.41701 19.0141 4.46831 19.9647 3.97499 20.4864L9.00309 24.378C10.0846 23.9928 14.3917 22.4389 15.7578 21.881C16.9532 21.3953 19.0593 18.3784 19.7803 17.2571C19.7993 17.2267 19.8183 17.2002 19.8372 17.1755C21.0326 15.9953 22.6074 13.9404 22.3987 13.0657C22.3228 12.7792 22.1331 12.5857 21.8105 12.4756C21.0326 12.2157 19.7234 12.5003 19.0024 13.0866C18.528 13.4547 18.0727 13.9442 17.6363 14.4205C16.9152 15.1946 16.327 15.8075 15.7768 15.8928C15.5112 15.9346 15.2645 15.7562 15.2266 15.4982C15.1886 15.2382 15.3594 14.9973 15.625 14.9593C15.8717 14.9233 16.5168 14.2326 16.9342 13.7735C17.3896 13.2991 17.8829 12.7602 18.4142 12.3466C19.268 11.6654 20.9188 11.1778 22.1141 11.5801C22.7403 11.7926 23.1577 12.2404 23.3095 12.838C23.7269 14.5077 21.1654 17.1907 20.5393 17.8092C20.1598 18.4164 17.7501 22.0897 16.1183 22.7557C14.5245 23.399 9.30668 25.2755 9.07899 25.3552C9.02207 25.3741 8.98412 25.3817 8.9272 25.3817Z" fill="#7A76FF"/>
<path fill-rule="evenodd" clip-rule="evenodd" d="M9.04148 29.6335C8.90866 29.6335 8.79482 29.5861 8.69995 29.495C8.51021 29.3129 8.51021 29.0131 8.69995 28.8271L10.6543 26.8482L1.54676 19.8145L0.863692 20.8125C0.711901 21.0269 0.427291 21.0801 0.199603 20.9321C-0.00911086 20.7841 -0.0660328 20.49 0.0857591 20.2756L1.05343 18.8677C1.12933 18.7614 1.24317 18.6893 1.37599 18.6685C1.50881 18.6495 1.62265 18.6836 1.7365 18.7614L11.6599 26.4269C11.7737 26.5104 11.8307 26.6356 11.8496 26.7704C11.8496 26.9051 11.8117 27.0379 11.7168 27.1347L9.36404 29.4931C9.28814 29.5861 9.15532 29.6335 9.04148 29.6335Z" fill="#7A76FF"/>
<path fill-rule="evenodd" clip-rule="evenodd" d="M29.7229 15.7977H23.6702C23.4045 15.7977 23.1958 15.5852 23.1958 15.3252C23.1958 15.0634 23.4045 14.8528 23.6702 14.8528H29.7229C29.9885 14.8528 30.1972 15.0634 30.1972 15.3252C30.1972 15.5852 29.9885 15.7977 29.7229 15.7977Z" fill="#7A76FF"/>
<path fill-rule="evenodd" clip-rule="evenodd" d="M16.7829 13.441C16.5363 13.441 16.3086 13.2304 16.3086 12.9686V5.20634C16.3086 4.9445 16.5363 4.73389 16.7829 4.73389H29.7232C29.9888 4.73389 30.1975 4.9445 30.1975 5.20634C30.1975 5.46818 29.9888 5.67879 29.7232 5.67879H17.2573V12.9686C17.2573 13.2304 17.0486 13.441 16.7829 13.441Z" fill="#7A76FF"/>
<path fill-rule="evenodd" clip-rule="evenodd" d="M18.3011 11.893C18.0544 11.893 17.8457 11.6805 17.8457 11.4206V8.71679C17.8457 8.51567 17.9595 8.33542 18.1493 8.26901C18.9462 7.99388 19.5913 7.35067 19.8759 6.54807C19.9518 6.35833 20.1226 6.2312 20.3313 6.2312H29.7234C29.9891 6.2312 30.1978 6.44371 30.1978 6.70365C30.1978 6.9636 29.9891 7.17611 29.7234 7.17611H20.6349C20.2744 7.99578 19.5913 8.66177 18.7754 9.03556V11.4206C18.7754 11.6805 18.5667 11.893 18.3011 11.893Z" fill="#7A76FF"/>
<path fill-rule="evenodd" clip-rule="evenodd" d="M29.7231 14.3011H24.0119C23.7463 14.3011 23.5376 14.0886 23.5376 13.8287C23.5376 13.5668 23.7463 13.3562 24.0119 13.3562H29.7231C29.9888 13.3562 30.1975 13.5668 30.1975 13.8287C30.1975 14.0886 29.9888 14.3011 29.7231 14.3011Z" fill="#7A76FF"/>
<path fill-rule="evenodd" clip-rule="evenodd" d="M26.5542 9.19105C25.966 9.19105 25.4727 9.67299 25.4727 10.2669C25.4727 10.8589 25.966 11.3408 26.5542 11.3408C27.1424 11.3408 27.6357 10.8589 27.6357 10.2669C27.6357 9.67299 27.1424 9.19105 26.5542 9.19105ZM26.5542 12.2857C25.4347 12.2857 24.543 11.3788 24.543 10.2669C24.543 9.15311 25.4347 8.24805 26.5542 8.24805C27.6737 8.24805 28.5655 9.15311 28.5655 10.2669C28.5655 11.3788 27.6737 12.2857 26.5542 12.2857Z" fill="#7A76FF"/>
<path fill-rule="evenodd" clip-rule="evenodd" d="M31.5257 17.8736H28.0535C27.7878 17.8736 27.5791 17.663 27.5791 17.4012V16.72C27.5791 16.4601 27.7878 16.2495 28.0535 16.2495C28.3191 16.2495 28.5278 16.4601 28.5278 16.72V16.9287H31.0513V2.94301H28.5278V3.68868C28.5278 3.95053 28.3191 4.16114 28.0535 4.16114C27.7878 4.16114 27.5791 3.95053 27.5791 3.68868V2.47055C27.5791 2.21061 27.7878 2 28.0535 2H31.5257C31.7913 2 32 2.21061 32 2.47055V17.4012C32 17.663 31.7913 17.8736 31.5257 17.8736Z" fill="#7A76FF"/>
</svg>
