<svg width="32" height="32" viewBox="0 0 32 32" fill="none" xmlns="http://www.w3.org/2000/svg">
<path fill-rule="evenodd" clip-rule="evenodd" d="M15.9998 14.2953C15.055 14.2953 14.295 15.0552 14.295 16C14.295 16.9243 15.055 17.6842 15.9998 17.6842C16.9446 17.6842 17.7045 16.9243 17.7045 16C17.7045 15.0552 16.9446 14.2953 15.9998 14.2953ZM15.9998 18.7112C14.5004 18.7112 13.2681 17.4994 13.2681 16C13.2681 14.4801 14.5004 13.2683 15.9998 13.2683C17.4991 13.2683 18.7315 14.4801 18.7315 16C18.7315 17.4994 17.4991 18.7112 15.9998 18.7112Z" fill="#7A76FF"/>
<path fill-rule="evenodd" clip-rule="evenodd" d="M15.9998 14.2953C15.055 14.2953 14.295 15.0552 14.295 16C14.295 16.9243 15.055 17.6842 15.9998 17.6842C16.9446 17.6842 17.7045 16.9243 17.7045 16C17.7045 15.0552 16.9446 14.2953 15.9998 14.2953ZM15.9998 18.7112C14.5004 18.7112 13.2681 17.4994 13.2681 16C13.2681 14.4801 14.5004 13.2683 15.9998 13.2683C17.4991 13.2683 18.7315 14.4801 18.7315 16C18.7315 17.4994 17.4991 18.7112 15.9998 18.7112Z" fill="#7A76FF"/>
<path fill-rule="evenodd" clip-rule="evenodd" d="M15.9998 10.0846C12.7546 10.0846 10.1051 12.7341 10.1051 15.9999C10.1051 19.245 12.7546 21.8946 15.9998 21.8946C19.2655 21.8946 21.8946 19.245 21.8946 15.9999C21.8946 12.7341 19.2655 10.0846 15.9998 10.0846ZM15.9998 22.9215C12.1795 22.9215 9.07812 19.8201 9.07812 15.9999C9.07812 12.1796 12.1795 9.05762 15.9998 9.05762C19.8201 9.05762 22.9215 12.1796 22.9215 15.9999C22.9215 19.8201 19.8201 22.9215 15.9998 22.9215Z" fill="#7A76FF"/>
<path fill-rule="evenodd" clip-rule="evenodd" d="M15.9998 5.62779C10.2899 5.62779 5.64805 10.2902 5.64805 16.0001C5.64805 21.7099 10.2899 26.3518 15.9998 26.3518C21.7097 26.3518 26.3515 21.7099 26.3515 16.0001C26.3515 10.2902 21.7097 5.62779 15.9998 5.62779ZM15.9998 27.3788C9.73534 27.3788 4.62109 22.2645 4.62109 16.0001C4.62109 9.71508 9.73534 4.60083 15.9998 4.60083C22.2848 4.60083 27.3785 9.71508 27.3785 16.0001C27.3785 22.2645 22.2848 27.3788 15.9998 27.3788Z" fill="#7A76FF"/>
<path fill-rule="evenodd" clip-rule="evenodd" d="M16 1.00642C7.74326 1.00642 1.02696 7.74326 1.02696 16C1.02696 24.2567 7.74326 30.973 16 30.973C24.2567 30.973 30.973 24.2567 30.973 16C30.973 7.74326 24.2567 1.00642 16 1.00642ZM16 32C7.1887 32 0 24.8113 0 16C0 7.16816 7.1887 0 16 0C24.8318 0 32 7.16816 32 16C32 24.8113 24.8318 32 16 32Z" fill="#7A76FF"/>
</svg>
